<svg width="156" height="38" viewBox="0 0 156 38" fill="none" xmlns="http://www.w3.org/2000/svg">
<g clip-path="url(#clip0_123:185)">
<path d="M62.9402 12.3192H54.1746V12.3217H53.8802C53.1102 12.3217 53.0063 11.9092 53.0063 11.506C53.0063 11.1027 53.1102 10.6903 53.8802 10.6903H62.4347V8.29387H53.9891C52.1124 8.29387 51.0797 9.41556 51.0797 11.4519C51.0797 13.4882 52.1133 14.6099 53.9891 14.6099H62.4347V14.6075H63.0525C63.8516 14.6075 63.9597 15.0199 63.9597 15.4231C63.9597 15.8264 63.8516 16.2389 63.0525 16.2389H54.1746V18.6352H62.9402C64.8876 18.6352 65.9602 17.5135 65.9602 15.4772C65.9594 13.4409 64.8876 12.3192 62.9402 12.3192ZM73.0554 10.4566H78.8078V18.6178H81.1842V10.4566H86.9365V8.11011H73.0554V10.4566ZM152.229 14.4428C154.177 14.3355 155.247 13.2288 155.247 11.2956C155.247 9.25924 154.063 8.13754 151.912 8.13754H142.233V8.16581H142.221V18.6178H144.536V14.4536H149.124L152.509 18.4955H155.623L152.229 14.4428ZM144.536 12.0572V10.4258H152.037C152.92 10.4258 153.039 10.8383 153.039 11.2415C153.039 11.6448 152.92 12.0572 152.037 12.0572H144.536ZM124.08 8.1259L117.857 18.5479H120.634L122.131 16.0401H128.812L130.309 18.5479H133.086L126.862 8.1259H124.08ZM123.319 14.0512L125.471 10.4475L127.623 14.0512H123.319ZM99.7167 8.1259L93.4929 18.5479H96.2693L97.7668 16.0401H104.447L105.945 18.5479H108.721L102.497 8.1259H99.7167ZM98.955 14.0512L101.107 10.4475L103.259 14.0512H98.955Z" fill="black"/>
<path d="M96.8548 24.2153L93.8921 29.7639H94.5091L95.5726 27.7858H98.6733L99.7368 29.7639H100.354L97.4152 24.2153H96.8548ZM95.8478 27.2802L97.1383 24.8556L98.4205 27.2802H95.8478ZM85.0849 24.2228H84.5328V29.7639H89.0378V29.2509H85.0849V24.2228ZM120.295 26.6333C119.848 26.6034 119.126 26.6034 118.647 26.5884C118.054 26.5735 117.259 26.4321 117.259 25.7478C117.259 25.1308 117.965 24.7882 118.534 24.6693C118.793 24.6095 119.053 24.5945 119.313 24.5945C120.214 24.5945 120.741 24.8398 121.48 25.2713L121.821 24.8922C121.074 24.3791 120.351 24.0964 119.41 24.0964C119.028 24.0964 118.639 24.1339 118.266 24.2303C117.47 24.4315 116.708 24.9221 116.708 25.7553C116.708 26.7448 117.73 27.079 118.648 27.094C119.11 27.1015 119.914 27.094 120.247 27.1239C120.807 27.1688 121.61 27.4582 121.61 28.1799C121.61 29.1844 120.1 29.3773 119.289 29.3773C118.184 29.3773 117.429 29.117 116.65 28.3878L116.269 28.752C116.731 29.1686 117.08 29.4513 117.697 29.6517C118.193 29.8155 118.712 29.8895 119.24 29.8895C120.409 29.8895 122.17 29.5328 122.17 28.1716C122.17 27.2279 121.31 26.7073 120.295 26.6333ZM110.192 26.8786C110.565 26.5435 110.801 26.2093 110.801 25.7112C110.801 24.8257 110.037 24.2236 109.096 24.2236H105.532V29.7648H109.096C109.616 29.7648 110.013 29.7348 110.436 29.4305C110.841 29.1403 111.077 28.6938 111.077 28.2257C111.077 27.622 110.743 27.1755 110.192 26.8786ZM106.084 24.7367H109.096C109.746 24.7367 110.249 25.0784 110.249 25.7037C110.249 26.3215 109.737 26.6708 109.096 26.6708H106.084V24.7367ZM110.151 28.9906C109.851 29.2434 109.494 29.2509 109.096 29.2509H106.084V27.183H109.096C109.834 27.183 110.516 27.4582 110.516 28.224C110.516 28.515 110.395 28.7977 110.151 28.9906ZM76.0091 27.405V26.5826L51.0799 26.9942L76.0091 27.405ZM130.693 26.5826V27.405L155.623 26.9934L130.693 26.5826Z" fill="black"/>
<path d="M42.7157 22.6314C43.0449 23.2492 43.3351 23.8637 43.5971 24.4765C43.8606 25.1001 44.0901 25.7204 44.2789 26.3307C44.6655 27.5929 44.8842 28.8194 44.9183 29.9744C44.9466 31.1875 44.7645 32.3225 44.3579 33.3303C44.145 33.8566 43.8631 34.3422 43.5231 34.7904L43.3925 34.9617C43.3493 35.0199 43.2985 35.0698 43.2512 35.1247L43.1056 35.2876L43.0325 35.37L42.9535 35.4465C42.8462 35.5479 42.7406 35.6535 42.6292 35.7533L42.2733 36.0393C41.7711 36.4135 41.2023 36.737 40.5696 37.0064C40.4058 37.0712 40.2428 37.1386 40.0732 37.2001L39.5402 37.3614L39.2691 37.4429C39.1776 37.4695 39.0787 37.4853 38.9839 37.5077L38.3985 37.6316C38.3012 37.6558 38.1965 37.6666 38.0925 37.6807L37.779 37.7223L37.4614 37.7639L37.3009 37.7846C37.2469 37.7905 37.1903 37.7921 37.1346 37.7955C36.684 37.8196 36.235 37.862 35.751 37.842C35.5091 37.8379 35.2679 37.8395 35.0201 37.8287L34.256 37.773L33.8677 37.7431L33.4677 37.6907L32.6553 37.5842L31.813 37.4304L31.3856 37.3514C31.2418 37.3223 31.0946 37.2832 30.9491 37.25L30.0627 37.0371C29.7626 36.959 29.4582 36.865 29.1531 36.7794C28.5394 36.6147 27.9116 36.3852 27.2805 36.1773C27.1217 36.1275 26.9621 36.0609 26.8016 36.0011L26.3193 35.8165C25.9959 35.6909 25.6707 35.5745 25.344 35.429L24.357 35.0058C24.1907 34.9368 24.026 34.8569 23.8597 34.7779L23.3608 34.541C22.689 34.2333 22.0221 33.8741 21.3486 33.524C21.2646 33.4791 21.179 33.4367 21.095 33.3902L20.8431 33.248L20.3383 32.9619L19.832 32.6751L19.5783 32.5304L19.3272 32.3766L18.3186 31.7588L18.0658 31.6033L17.8164 31.4386L17.3175 31.1094L16.8178 30.7784L16.5675 30.6121L16.3222 30.4375L15.3394 29.7365L15.0932 29.5611C15.0117 29.5012 14.9328 29.4389 14.8521 29.3782L14.3715 29.0107L13.8909 28.6423C13.7304 28.5201 13.5691 28.397 13.4153 28.2681C12.7933 27.7559 12.1605 27.2529 11.5677 26.7165L11.117 26.3199C10.9673 26.1869 10.8143 26.0572 10.6721 25.92L9.80822 25.1043C9.51636 24.8357 9.24696 24.5546 8.97423 24.2769C8.70316 23.9984 8.42627 23.724 8.16268 23.4438L7.39271 22.599C7.26632 22.4584 7.13495 22.3196 7.01271 22.1774L6.65268 21.7508L5.93925 20.9027L5.27737 20.0504L4.94893 19.6272C4.84333 19.4858 4.74522 19.3436 4.6446 19.2014L4.04925 18.3566C2.55671 16.1415 1.46328 13.9805 0.781453 11.9624L0.556952 11.2332L0.50207 11.0527L0.458831 10.8756L0.372356 10.5239L0.286714 10.1755C0.258443 10.0599 0.243473 9.94768 0.221023 9.8346C0.181942 9.61009 0.136209 9.38558 0.105443 9.16607C-0.0084725 8.3038 -0.0259336 7.4906 0.0331029 6.72728C0.171132 5.27216 0.636774 4.02657 1.40175 3.02877C1.75847 2.54816 2.19417 2.12991 2.6781 1.76489L2.85771 1.63185L2.94751 1.56616L3.04397 1.50546L3.42479 1.26765C3.69503 1.12629 3.95196 0.979952 4.24299 0.863542C6.36082 -0.0552656 9.13886 -0.226555 12.158 0.281492C11.497 0.233265 10.8476 0.209981 10.2265 0.227442C9.58954 0.245735 8.98254 0.306441 8.398 0.399569L7.96063 0.480222L7.53573 0.579165C7.38939 0.609931 7.25718 0.654001 7.11998 0.693913C6.98195 0.734656 6.84143 0.774575 6.71421 0.825296C6.16791 1.01072 5.67317 1.24936 5.21751 1.52874L5.04456 1.63601C5.01545 1.6543 4.98552 1.67092 4.95725 1.69005L4.87659 1.74909L4.54898 1.98773L4.24548 2.24966L4.16816 2.31617L4.09831 2.38685L3.95862 2.5307C3.58278 2.924 3.24519 3.35721 2.99408 3.85029C2.92091 3.97086 2.86686 4.10224 2.80865 4.23278C2.75211 4.36499 2.68559 4.49304 2.64318 4.63356C2.59579 4.77325 2.54424 4.91129 2.4985 5.0543L2.38625 5.49832C2.25571 6.11446 2.18835 6.77301 2.19999 7.47563C2.22161 8.19987 2.31308 8.96318 2.49102 9.76641C2.68476 10.5904 2.94335 11.446 3.29674 12.3341C4.04842 14.1667 5.10775 16.0983 6.51798 18.0581L7.07508 18.8023C7.16987 18.927 7.25884 19.0526 7.35529 19.1765L7.6563 19.549L8.25996 20.2982L8.90854 21.0416L9.23365 21.4149C9.34424 21.5388 9.46315 21.6602 9.57706 21.7832L10.2697 22.5216C10.5067 22.7661 10.7553 23.0064 10.9973 23.2492C11.2417 23.492 11.482 23.7364 11.7423 23.9709L12.5081 24.6844C12.6337 24.8049 12.7692 24.9188 12.9014 25.0344L13.2997 25.382C13.8227 25.8526 14.3815 26.2925 14.9286 26.7423C15.0641 26.8562 15.2055 26.9635 15.3477 27.0708L15.7709 27.3942L16.1933 27.7177C16.264 27.7709 16.3338 27.8258 16.4053 27.8781L16.6215 28.0328L17.4855 28.6498L17.7008 28.8036L17.9203 28.95L18.3585 29.2426L18.7959 29.5362L19.0138 29.6825L19.2358 29.8214L20.1197 30.3735L20.34 30.5115L20.5628 30.6412L21.0077 30.899L21.4509 31.1559L21.6721 31.284C21.7461 31.3255 21.8209 31.3638 21.8949 31.4045C22.4869 31.7197 23.074 32.0465 23.6652 32.3267L24.105 32.5437C24.2514 32.616 24.3969 32.6892 24.5432 32.7524L25.4146 33.1457C25.7032 33.2821 25.9909 33.3927 26.2769 33.5116L26.7043 33.687C26.8465 33.7435 26.9887 33.8067 27.1292 33.8558C27.6905 34.0554 28.2492 34.2782 28.7964 34.4412C29.0683 34.526 29.341 34.6191 29.6096 34.6981L30.4045 34.9151C30.5359 34.9501 30.6681 34.99 30.7969 35.0199L31.1828 35.108L31.9452 35.2818L32.6845 35.4132L33.0495 35.4781L33.4045 35.523L34.1055 35.6103C34.3333 35.6319 34.5553 35.6419 34.779 35.6585C35.2263 35.7009 35.6421 35.6851 36.0653 35.6942C36.1169 35.6942 36.1701 35.6967 36.2208 35.6951L36.3713 35.6868L36.6707 35.6701L36.9667 35.6535C37.0648 35.6477 37.1637 35.6452 37.256 35.6302L37.8131 35.5587C37.9038 35.5454 37.9986 35.5388 38.0859 35.5205L38.3461 35.4664L38.86 35.36L39.3439 35.2253C39.9659 35.0374 40.533 34.7979 41.041 34.5077C42.0131 33.9473 42.7597 33.1989 43.2844 32.3076C43.533 31.8777 43.7259 31.4104 43.8723 30.9181C44.0145 30.4392 44.1068 29.9319 44.1508 29.4015C44.2332 28.3787 44.1384 27.2678 43.8848 26.1054C43.6361 24.9878 43.2412 23.8229 42.7157 22.6314Z" fill="black"/>
<path d="M22.0837 4.53876C22.7913 4.82979 23.5114 5.16322 24.2315 5.52492C24.9424 5.88413 25.6575 6.27744 26.3668 6.69901C27.7654 7.52802 29.1598 8.47759 30.4885 9.50449C31.8098 10.5247 33.0853 11.6381 34.2577 12.7956C34.8489 13.3776 35.4152 13.9755 35.9532 14.5791C36.4961 15.1886 37.0133 15.8081 37.4948 16.4317C37.7392 16.746 37.9737 17.062 38.2007 17.3788C38.4285 17.6973 38.6497 18.0174 38.8584 18.3367C39.0705 18.6585 39.2708 18.9803 39.4621 19.3021C39.6542 19.6263 39.8354 19.949 40.0076 20.2708C40.356 20.9243 40.6578 21.572 40.9097 22.2081C41.165 22.8567 41.3721 23.4953 41.5217 24.1139C41.6764 24.7484 41.7712 25.3637 41.8019 25.9491C41.8369 26.5527 41.8036 27.1265 41.7046 27.6661C41.4943 28.7886 40.9829 29.7507 40.173 30.4824C39.9635 30.6736 39.7323 30.8458 39.4821 31.0029C39.2276 31.1626 38.9574 31.3089 38.663 31.4328C38.5167 31.4985 38.3595 31.5525 38.2065 31.6124C38.0444 31.664 37.8847 31.7205 37.7134 31.7629C37.3734 31.8577 37.01 31.9284 36.6283 31.9774C35.0427 32.1795 33.1369 32.0099 31.0249 31.4461C26.5048 30.2454 21.3553 27.3826 16.9284 23.5527C16.3763 23.0746 15.8375 22.5865 15.317 22.0884C14.8006 21.5895 14.3017 21.084 13.822 20.5726C13.3455 20.062 12.8923 19.5465 12.4591 19.0293C12.0292 18.5138 11.6285 17.9958 11.2493 17.4794C10.8743 16.9655 10.53 16.4533 10.2066 15.9453C9.88813 15.4406 9.60126 14.9408 9.33851 14.4478C9.08241 13.9588 8.85707 13.4782 8.65418 13.0068C8.56106 12.7739 8.46127 12.5411 8.38145 12.3125C8.29581 12.0855 8.21764 11.8576 8.15112 11.634C7.64474 9.89779 7.66719 8.41356 8.02723 7.1846C8.20184 6.59673 8.46211 6.07206 8.80469 5.61806C8.97514 5.39771 9.16472 5.19399 9.37509 5.0094L9.53557 4.87636L9.70354 4.7508L9.88065 4.63522L10.0652 4.52795C9.66445 4.88384 9.35098 5.31123 9.1273 5.80348C8.89116 6.30571 8.74149 6.87029 8.66749 7.48311C8.59515 8.11422 8.60097 8.79605 8.70574 9.52528C8.80967 10.2711 9.00923 11.0627 9.33518 11.8892C9.41583 12.0979 9.50647 12.3083 9.60625 12.5253C9.70021 12.7407 9.81163 12.9602 9.91723 13.1789C10.1434 13.6212 10.3887 14.0694 10.6614 14.5209C10.9383 14.9766 11.231 15.4356 11.5536 15.8962C11.8796 16.3594 12.2221 16.8242 12.5913 17.2873C12.9647 17.753 13.3522 18.2169 13.7621 18.6776C14.1753 19.1391 14.6044 19.5981 15.0526 20.0504C15.5032 20.5027 15.9689 20.9484 16.4478 21.3858C16.9301 21.8223 17.4232 22.2514 17.9271 22.6696C18.4326 23.087 18.9498 23.492 19.4737 23.8853C19.9975 24.2777 20.5305 24.6536 21.0668 25.0178C22.1353 25.7412 23.2204 26.4047 24.3063 26.9926C26.4408 28.1467 28.5437 29.019 30.4827 29.5353C32.3461 30.0359 34.0332 30.2155 35.4435 30.0633C36.7863 29.9278 37.8797 29.5004 38.688 28.8535C40.193 27.6736 40.6686 25.6763 40.1963 23.3415C40.0874 22.7919 39.9236 22.2206 39.714 21.6377C39.5045 21.064 39.2575 20.4803 38.9599 19.8858C38.8135 19.5931 38.658 19.2979 38.4909 19.0019C38.3246 18.7075 38.1483 18.4115 37.9646 18.1163C37.7825 17.8228 37.5887 17.5276 37.3875 17.2324C37.1871 16.9398 36.9792 16.6462 36.7605 16.3527C36.3282 15.7715 35.8659 15.1903 35.3728 14.6149C34.8847 14.0445 34.3667 13.4791 33.8254 12.922C32.7494 11.8186 31.5662 10.7401 30.3156 9.73149C29.6903 9.2251 29.0442 8.73452 28.3865 8.26222C27.7246 7.78744 27.0478 7.33095 26.361 6.89607C24.9724 6.01552 23.5297 5.2181 22.0837 4.53876Z" fill="black"/>
<path d="M17.0175 17.4037C11.148 11.372 12.5341 8.23642 13.122 7.38247C13.5186 6.82537 13.7905 6.55014 14.3069 6.22502C14.8107 5.9157 15.4286 5.71448 16.1378 5.62718C16.4829 5.58394 16.8546 5.57146 17.2412 5.58394C17.6229 5.59724 18.0178 5.62967 18.4336 5.69535C18.8427 5.75938 19.2643 5.84585 19.695 5.95312C19.8022 5.98139 19.9095 6.008 20.0176 6.03793L20.3452 6.13439L20.5082 6.18261C20.5622 6.19841 20.6188 6.21837 20.6737 6.23583L21.0038 6.34393C21.8768 6.63994 22.7865 7.02908 23.6962 7.47892C24.1468 7.70675 24.5975 7.94374 25.049 8.20566C25.2727 8.33121 25.4972 8.4684 25.7209 8.60144C25.8323 8.66796 25.9437 8.73948 26.0551 8.8085C26.1657 8.87834 26.2771 8.94568 26.3877 9.01886L26.7187 9.23506C26.8284 9.30656 26.9382 9.38306 27.0471 9.45706C27.2658 9.60423 27.482 9.75972 27.6982 9.91272C27.7522 9.95097 27.8063 9.99005 27.8595 10.0291L28.02 10.1472C28.1264 10.2262 28.2345 10.3035 28.3401 10.385L28.6569 10.6278L28.7359 10.6885L28.814 10.7509L28.9704 10.8748C29.3878 11.2049 29.7944 11.5491 30.1943 11.8975C30.3922 12.0738 30.5918 12.2484 30.7847 12.4288C30.8811 12.5186 30.9801 12.6076 31.0749 12.6982L31.3601 12.971C31.4557 13.0616 31.5472 13.1547 31.6403 13.247C31.7326 13.3393 31.8257 13.4316 31.9172 13.5248L32.1874 13.8058C32.2323 13.8524 32.2781 13.8998 32.3221 13.9463L32.4535 14.0885L32.7163 14.3729L32.9715 14.6598L33.0996 14.8036C33.1412 14.8518 33.1819 14.9001 33.2227 14.9483L33.4679 15.2376C34.1149 16.0168 34.6994 16.8084 35.2033 17.5891C35.4569 17.9849 35.6914 18.3791 35.9059 18.7707C36.1188 19.1648 36.3084 19.554 36.478 19.9381C37.1673 21.518 37.4284 22.9831 37.2064 24.1355C36.9727 25.367 36.1936 26.26 34.9148 26.6084C35.1642 26.4263 35.3929 26.2326 35.5858 26.0114C35.7762 25.7944 35.9333 25.5541 36.0672 25.3005C36.1969 25.0494 36.2926 24.7758 36.3649 24.4906C36.4372 24.2112 36.4763 23.9119 36.4904 23.6009C36.5478 22.4052 36.1978 21.0033 35.5051 19.5465C35.3355 19.1914 35.1484 18.8339 34.9422 18.473C34.7352 18.1155 34.5156 17.7571 34.2762 17.3979C33.7972 16.687 33.2642 15.976 32.673 15.2792L32.4485 15.0206C32.4111 14.9774 32.3745 14.9341 32.3371 14.8917L32.2215 14.7637L31.992 14.5076L31.7551 14.254L31.637 14.1276C31.5971 14.0852 31.5555 14.0436 31.5156 14.002L31.272 13.7518C31.1896 13.6686 31.1057 13.5871 31.0225 13.5048C30.9394 13.4225 30.857 13.3402 30.7706 13.2595L30.5153 13.0159C30.4305 12.9352 30.3423 12.8562 30.2559 12.7756C30.0837 12.6151 29.905 12.4596 29.7279 12.3024C29.6397 12.2235 29.5483 12.1478 29.4585 12.0705C29.3678 11.994 29.2789 11.9158 29.1866 11.841L28.9113 11.6148C28.8199 11.5383 28.7259 11.4668 28.6328 11.3928L28.4931 11.2814L28.4232 11.2257L28.3526 11.1716L28.0699 10.9546C27.9759 10.8814 27.8794 10.8132 27.7846 10.7417L27.6416 10.6361C27.5942 10.6004 27.546 10.5655 27.4978 10.5314C27.3049 10.395 27.112 10.2553 26.9166 10.1248C26.8193 10.0591 26.7212 9.99005 26.623 9.92603L26.3279 9.73229C25.5354 9.21427 24.728 8.75445 23.924 8.34119L23.6205 8.19069L23.4683 8.11502L23.317 8.04434L23.0127 7.90216C22.9112 7.85643 22.8106 7.81402 22.7092 7.76912C22.5046 7.67682 22.3059 7.60032 22.1022 7.51551C22.0506 7.49389 22.0007 7.47477 21.9508 7.45564L21.8003 7.39826C21.6997 7.36085 21.5966 7.31927 21.4977 7.28518L21.1967 7.18124C21.1468 7.16378 21.0952 7.14549 21.0462 7.12969L20.8973 7.08313L20.598 6.98917L20.3011 6.90436C19.9037 6.79377 19.5129 6.70147 19.1321 6.62996C18.7471 6.55845 18.3712 6.5069 18.0079 6.47697C17.6395 6.44703 17.2845 6.43954 16.9419 6.45285C16.2484 6.48694 15.6988 6.60502 15.1492 6.83119C14.5114 7.15797 14.2196 7.39328 13.7157 8.15992C12.1342 10.9737 14.9654 14.7679 17.0175 17.4037Z" fill="black"/>
<path d="M17.9013 8.34615C18.9865 8.34615 19.8662 7.46535 19.8662 6.37882C19.8662 5.29229 18.9865 4.4115 17.9013 4.4115C16.8162 4.4115 15.9365 5.29229 15.9365 6.37882C15.9365 7.46535 16.8162 8.34615 17.9013 8.34615Z" fill="black"/>
<path d="M30.8258 16.7085C31.2474 20.1542 28.9941 23.0212 25.5533 23.4436C22.1126 23.866 18.9811 21.4156 18.5596 17.9699C18.138 14.5241 20.7647 11.4659 23.8321 11.2347C27.2895 10.9745 30.4043 13.2636 30.8258 16.7085Z" fill="black"/>
<path d="M24.3717 38C26.2665 38 27.8025 36.4621 27.8025 34.565C27.8025 32.668 26.2665 31.1301 24.3717 31.1301C22.477 31.1301 20.9409 32.668 20.9409 34.565C20.9409 36.4621 22.477 38 24.3717 38Z" fill="black"/>
<path d="M37.7802 18.7291C38.6205 18.7291 39.3018 18.0471 39.3018 17.2058C39.3018 16.3645 38.6205 15.6825 37.7802 15.6825C36.9398 15.6825 36.2585 16.3645 36.2585 17.2058C36.2585 18.0471 36.9398 18.7291 37.7802 18.7291Z" fill="black"/>
</g>
<defs>
<clipPath id="clip0_123:185">
<rect width="155.623" height="38" fill="white"/>
</clipPath>
</defs>
</svg>
